<?xml version="1.0" standalone="no"?>
<!DOCTYPE svg PUBLIC "-//W3C//DTD SVG 20010904//EN"
 "http://www.w3.org/TR/2001/REC-SVG-20010904/DTD/svg10.dtd">
<svg version="1.0" xmlns="http://www.w3.org/2000/svg"
 width="640.000000pt" height="640.000000pt" viewBox="0 0 640.000000 640.000000"
 preserveAspectRatio="xMidYMid meet">
<metadata>
Created by potrace 1.11, written by Peter Selinger 2001-2013
</metadata>
<g transform="translate(0.000000,640.000000) scale(0.100000,-0.100000)"
fill="#000000" stroke="none">
<path d="M2980 5550 c-30 -4 -80 -10 -110 -14 -511 -63 -1050 -345 -1388 -726
-133 -148 -150 -170 -209 -259 -31 -47 -65 -99 -76 -115 -30 -44 -132 -251
-166 -339 -112 -281 -163 -548 -163 -852 -1 -373 72 -693 237 -1030 69 -141
189 -334 262 -421 139 -165 308 -328 429 -414 38 -27 75 -54 81 -60 7 -6 54
-36 105 -67 713 -435 1618 -448 2348 -35 79 44 145 86 148 94 2 5 8 8 14 8 8
0 49 30 151 110 194 153 407 399 544 630 169 285 286 647 311 960 12 156 5
479 -12 531 -3 8 -7 37 -10 65 -11 104 -84 367 -134 484 -136 320 -285 543
-517 776 -355 358 -795 581 -1285 654 -41 6 -86 14 -100 16 -44 9 -403 12
-460 4z"/>
</g>
</svg>
