<?xml version="1.0" standalone="no"?>
<!DOCTYPE svg PUBLIC "-//W3C//DTD SVG 20010904//EN"
 "http://www.w3.org/TR/2001/REC-SVG-20010904/DTD/svg10.dtd">
<svg version="1.0" xmlns="http://www.w3.org/2000/svg"
 width="500.000000pt" height="500.000000pt" viewBox="0 0 500.000000 500.000000"
 preserveAspectRatio="xMidYMid meet">
<metadata>
Created by potrace 1.11, written by Peter Selinger 2001-2013
</metadata>
<g transform="translate(0.000000,500.000000) scale(0.100000,-0.100000)"
fill="#000000" stroke="none">
<path d="M2328 4875 c-2 -1 -35 -5 -73 -9 -39 -4 -81 -8 -95 -11 -118 -20
-165 -29 -230 -45 -682 -173 -1249 -633 -1560 -1267 -33 -67 -60 -125 -60
-129 0 -3 -7 -20 -15 -37 -28 -63 -86 -254 -110 -367 -44 -210 -54 -317 -50
-545 2 -104 6 -206 9 -225 3 -19 8 -53 11 -75 5 -41 12 -81 20 -125 3 -14 7
-34 9 -45 16 -85 73 -266 119 -380 122 -301 302 -571 533 -797 55 -53 115
-109 134 -124 19 -16 37 -31 40 -35 3 -3 32 -25 65 -50 33 -24 62 -46 65 -49
3 -3 14 -10 25 -17 11 -7 64 -40 118 -73 114 -70 247 -136 375 -184 84 -32
272 -89 335 -101 15 -3 39 -7 55 -10 15 -3 38 -8 51 -11 13 -3 45 -7 70 -10
25 -2 57 -7 71 -10 44 -10 413 -13 490 -4 123 14 156 19 237 36 43 9 85 17 93
19 77 15 262 76 370 122 607 259 1087 766 1310 1383 43 119 75 235 94 343 2
12 7 33 10 47 35 157 42 552 12 750 -28 186 -88 414 -139 533 -73 166 -108
238 -168 339 -255 432 -639 771 -1101 972 -143 62 -360 131 -477 151 -14 2
-42 7 -61 10 -107 20 -264 32 -412 33 -92 0 -168 -1 -170 -3z"/>
</g>
</svg>
